<!DOCTYPE svg PUBLIC "-//W3C//DTD SVG 1.1//EN" "http://www.w3.org/Graphics/SVG/1.1/DTD/svg11.dtd">
<!-- Uploaded to: SVG Repo, www.svgrepo.com, Transformed by: SVG Repo Mixer Tools -->
<svg height="205px" width="205px" version="1.1" id="_x32_" xmlns="http://www.w3.org/2000/svg" xmlns:xlink="http://www.w3.org/1999/xlink" viewBox="-87.04 -87.04 686.08 686.08" xml:space="preserve" fill="#ffffff" stroke="#ffffff" stroke-width="2.048" transform="matrix(1, 0, 0, 1, 0, 0)rotate(0)">
<g id="SVGRepo_bgCarrier" stroke-width="0" transform="translate(0,0), scale(1)">
<path transform="translate(-87.04, -87.04), scale(21.44)" d="M16,28.72860997063773C17.810669345947414,28.43105967445721,19.651543637440952,28.6692196585128,21.415241971655046,28.16283260792681C23.316091912910355,27.61706705568584,25.415842649134788,27.138994514914106,26.71864320384523,25.6511096901278C28.021098826104314,24.16361880112705,28.2409314198235,22.02288466236498,28.506865671151203,20.063726994696214C28.749607315101407,18.275431013139748,28.587640392789947,16.48061634390203,28.202769802108918,14.717437211826255C27.840503891496716,13.057815226359363,26.71904826962876,11.693133859366075,26.31933003970118,10.042132023721937C25.762407180300062,7.741809960977873,26.97657719197013,4.834055836240607,25.385685470439704,3.081712207257814C23.913440991463037,1.4600567557114126,21.163138712362866,1.7433701397158783,18.983829307941008,1.9621867963164998C16.990527623791152,2.1623270835272397,15.42461569625804,3.692543327809719,13.507635033525197,4.274344734913374C11.762350412354806,4.804036592600523,9.862433781996465,4.529769808195211,8.18264487523054,5.240333740364639C6.3194881894961314,6.0284636866518015,4.353899905053895,6.945669780746512,3.2246301283754644,8.62413676562053C2.088976481505955,10.31209228509694,2.3252942364733387,12.524804672051225,1.9379430731439786,14.52201826044038C1.5209954145033069,16.67183374654008,-0.1846450781561766,18.99014704968552,0.8386955300188585,20.926206442880876C1.9305955741863905,22.991973519896348,5.37398016831188,22.425749269736446,7.0016854262299475,24.10211883408674C8.54502282306823,25.691598149827538,7.759485943948778,29.07008881396345,9.729789967407811,30.083122313305182C11.652449452566183,31.071659332517665,13.866709673589638,29.079177107527272,16,28.72860997063773" fill="#7ed0ec" strokewidth="0"/>
</g>
<g id="SVGRepo_tracerCarrier" stroke-linecap="round" stroke-linejoin="round" stroke="#ffffff" stroke-width="13.312000000000001"> <style type="text/css"> .st0{fill:#ea0b0b;} </style> <g> <path class="st0" d="M55.542,281.347v118.61c0,32.571,24.824,61.89,64.435,82.394V333.454 C91.426,319.871,69.096,301.997,55.542,281.347z"/> <path class="st0" d="M144.445,493.174c28.181,10.588,61.444,17.252,97.294,18.657V361.06c-35.679-1.318-68.73-7.542-97.294-17.582 V493.174z"/> <path class="st0" d="M266.201,512c37.407-1.047,72.109-7.842,101.354-18.819V343.479c-29.649,10.42-64.12,16.732-101.354,17.721 V512z"/> <path class="st0" d="M392.024,333.454v148.882c39.611-20.489,64.435-49.808,64.435-82.379v-118.61 C442.912,301.997,420.578,319.871,392.024,333.454z"/> <path class="st0" d="M256.542,251.618c-7.667,8.794-6.744,22.129,2.043,29.788c8.787,7.674,22.133,6.751,29.792-2.036 c7.66-8.802,6.744-22.136-2.043-29.803C277.54,241.908,264.202,242.83,256.542,251.618z"/> <path class="st0" d="M318.378,195.666l-29.368,41.46l9.289,8.091l37.048-34.767c10.838-10.156,21.151-20.855,30.909-32.043 l78.641-90.244c4.671-5.36,4.107-13.474-1.245-18.145l-0.952-0.835c-5.352-4.664-13.473-4.1-18.145,1.246l-78.64,90.243 C336.153,171.875,326.967,183.547,318.378,195.666z"/> <path class="st0" d="M211.197,221.009c-10.731-4.554-23.136,0.454-27.691,11.189c-4.554,10.734,0.458,23.139,11.189,27.693 c10.732,4.555,23.128-0.454,27.69-11.188C226.94,237.968,221.935,225.579,211.197,221.009z"/> <path class="st0" d="M278.649,134.31c-2.212,5.214-4.57,10.384-6.986,15.539c19.903,0.937,39.322,3.617,57.453,7.872 c1.889-2.256,3.782-4.504,5.708-6.715l14.967-17.179c-20.166-5.99-42.361-10.09-65.874-11.928L278.649,134.31z"/> <path class="st0" d="M456.458,232.974c0-29.122-19.844-55.652-52.363-75.598l-18.468,21.191c0.531,0.278,1.08,0.557,1.6,0.85 c28.02,15.677,44.093,35.207,44.093,53.557c0,18.365-16.073,37.887-44.093,53.572c-34.017,19.024-81.844,29.95-131.231,29.95 c-49.376,0-97.207-10.926-131.22-29.95c-28.024-15.685-44.1-35.207-44.1-53.572c0-18.35,16.076-37.88,44.1-53.557 c23.706-13.268,54.132-22.583,87.109-27.013c3.211-10.098,6.777-20.152,10.695-30.03c-94.794,8.912-167.038,55.022-167.038,110.6 c0,61.956,89.749,112.181,200.455,112.181C366.717,345.156,456.458,294.93,456.458,232.974z"/> <path class="st0" d="M221.218,213.16l24.447-44.536c7.15-13.034,13.638-26.391,19.438-40.069L311.871,18.38 c2.779-6.547-0.271-14.089-6.81-16.864l-1.164-0.49c-6.539-2.775-14.088,0.278-16.86,6.81l-46.769,110.176 c-5.808,13.678-10.918,27.627-15.327,41.811l-15.059,48.526L221.218,213.16z"/> </g> </g>
<g id="SVGRepo_iconCarrier"> <style type="text/css"> .st0{fill:#ea0b0b;} </style> <g> <path class="st0" d="M55.542,281.347v118.61c0,32.571,24.824,61.89,64.435,82.394V333.454 C91.426,319.871,69.096,301.997,55.542,281.347z"/> <path class="st0" d="M144.445,493.174c28.181,10.588,61.444,17.252,97.294,18.657V361.06c-35.679-1.318-68.73-7.542-97.294-17.582 V493.174z"/> <path class="st0" d="M266.201,512c37.407-1.047,72.109-7.842,101.354-18.819V343.479c-29.649,10.42-64.12,16.732-101.354,17.721 V512z"/> <path class="st0" d="M392.024,333.454v148.882c39.611-20.489,64.435-49.808,64.435-82.379v-118.61 C442.912,301.997,420.578,319.871,392.024,333.454z"/> <path class="st0" d="M256.542,251.618c-7.667,8.794-6.744,22.129,2.043,29.788c8.787,7.674,22.133,6.751,29.792-2.036 c7.66-8.802,6.744-22.136-2.043-29.803C277.54,241.908,264.202,242.83,256.542,251.618z"/> <path class="st0" d="M318.378,195.666l-29.368,41.46l9.289,8.091l37.048-34.767c10.838-10.156,21.151-20.855,30.909-32.043 l78.641-90.244c4.671-5.36,4.107-13.474-1.245-18.145l-0.952-0.835c-5.352-4.664-13.473-4.1-18.145,1.246l-78.64,90.243 C336.153,171.875,326.967,183.547,318.378,195.666z"/> <path class="st0" d="M211.197,221.009c-10.731-4.554-23.136,0.454-27.691,11.189c-4.554,10.734,0.458,23.139,11.189,27.693 c10.732,4.555,23.128-0.454,27.69-11.188C226.94,237.968,221.935,225.579,211.197,221.009z"/> <path class="st0" d="M278.649,134.31c-2.212,5.214-4.57,10.384-6.986,15.539c19.903,0.937,39.322,3.617,57.453,7.872 c1.889-2.256,3.782-4.504,5.708-6.715l14.967-17.179c-20.166-5.99-42.361-10.09-65.874-11.928L278.649,134.31z"/> <path class="st0" d="M456.458,232.974c0-29.122-19.844-55.652-52.363-75.598l-18.468,21.191c0.531,0.278,1.08,0.557,1.6,0.85 c28.02,15.677,44.093,35.207,44.093,53.557c0,18.365-16.073,37.887-44.093,53.572c-34.017,19.024-81.844,29.95-131.231,29.95 c-49.376,0-97.207-10.926-131.22-29.95c-28.024-15.685-44.1-35.207-44.1-53.572c0-18.35,16.076-37.88,44.1-53.557 c23.706-13.268,54.132-22.583,87.109-27.013c3.211-10.098,6.777-20.152,10.695-30.03c-94.794,8.912-167.038,55.022-167.038,110.6 c0,61.956,89.749,112.181,200.455,112.181C366.717,345.156,456.458,294.93,456.458,232.974z"/> <path class="st0" d="M221.218,213.16l24.447-44.536c7.15-13.034,13.638-26.391,19.438-40.069L311.871,18.38 c2.779-6.547-0.271-14.089-6.81-16.864l-1.164-0.49c-6.539-2.775-14.088,0.278-16.86,6.81l-46.769,110.176 c-5.808,13.678-10.918,27.627-15.327,41.811l-15.059,48.526L221.218,213.16z"/> </g> </g>
</svg>