<svg width="36" height="36" viewBox="0 0 36 36" fill="none" xmlns="http://www.w3.org/2000/svg">
<g filter="url(#filter0_ii_84_59)">
<path d="M11.1899 17.9649L8.80137 19.5625V16.3674L11.1899 17.9649ZM17.0454 14.0482V9.59562L9.56566 14.5816L12.9068 16.8168L17.0454 14.0482ZM26.4345 14.5816L18.9546 9.59562V14.0482L23.0934 16.8168L26.4345 14.5816ZM9.56566 21.3481L17.0453 26.3342V21.8816L12.9069 19.1137L9.56566 21.3481ZM18.9546 21.8816V26.3342L26.4345 21.3481L23.0934 19.1137L18.9546 21.8816ZM17.9999 15.7065L14.6235 17.9648L17.9999 20.2234L21.3765 17.9648L17.9999 15.7065ZM35.9648 17.9649C35.9648 27.8869 27.9218 35.9295 17.9999 35.9295C8.07855 35.9295 0.0351562 27.8869 0.0351562 17.9649C0.0351562 8.04305 8.07855 0 17.9999 0C27.9218 0 35.9648 8.04305 35.9648 17.9649ZM29.1078 14.5804C29.1078 14.5383 29.1048 14.4969 29.0992 14.4559C29.0973 14.442 29.094 14.4285 29.0917 14.4144C29.0868 14.3876 29.0821 14.3606 29.0751 14.3343C29.071 14.3185 29.0652 14.3034 29.0602 14.2882C29.0526 14.2648 29.045 14.2415 29.0357 14.2187C29.0292 14.2029 29.0213 14.1872 29.0143 14.172C29.004 14.1503 28.9935 14.1293 28.9819 14.1089C28.9733 14.0936 28.9637 14.0791 28.9546 14.0645C28.9418 14.0446 28.9287 14.0253 28.9144 14.0066C28.9039 13.9926 28.893 13.9786 28.8814 13.9652C28.8664 13.9477 28.8506 13.9301 28.834 13.9137C28.8214 13.9009 28.8091 13.8881 28.7961 13.8764C28.7788 13.8606 28.7603 13.8454 28.7417 13.8307C28.7276 13.8197 28.7137 13.8086 28.6988 13.7981C28.6933 13.7945 28.6883 13.7899 28.6826 13.7864L18.5297 7.01747C18.2088 6.80358 17.7913 6.80358 17.4705 7.01747L7.31728 13.7864C7.31194 13.7899 7.30702 13.7945 7.30174 13.7981C7.28684 13.8085 7.27256 13.8197 7.2585 13.8307C7.2398 13.8454 7.22166 13.8606 7.20436 13.8764C7.19121 13.8881 7.17877 13.9009 7.16611 13.9137C7.14952 13.9301 7.13405 13.9477 7.11851 13.9652C7.1074 13.9785 7.09636 13.9926 7.08581 14.0066C7.07182 14.0254 7.05832 14.0446 7.04573 14.0645C7.03603 14.0791 7.02703 14.0936 7.01831 14.1089C7.00664 14.1293 6.99616 14.1504 6.98583 14.172C6.97852 14.1872 6.9712 14.2029 6.96452 14.2187C6.95517 14.2415 6.9473 14.2648 6.93991 14.2882C6.93471 14.3034 6.92951 14.3186 6.92508 14.3343C6.91798 14.3606 6.91341 14.3876 6.90834 14.4144C6.90609 14.4285 6.90258 14.442 6.90082 14.4559C6.89527 14.4968 6.89203 14.5383 6.89203 14.5804V21.3493C6.89203 21.3915 6.89527 21.4329 6.90082 21.4744C6.90258 21.4878 6.90609 21.5018 6.90834 21.5153C6.91341 21.5422 6.91805 21.5691 6.92508 21.5954C6.92951 21.6112 6.93471 21.6263 6.93991 21.6415C6.94723 21.6648 6.95517 21.6882 6.96452 21.7117C6.9712 21.7275 6.97852 21.7425 6.98583 21.7578C6.99609 21.7794 7.00664 21.8004 7.01831 21.8214C7.02703 21.836 7.03603 21.8507 7.04573 21.8653C7.05839 21.8851 7.07182 21.9045 7.08581 21.9231C7.09629 21.9377 7.1074 21.9511 7.11851 21.9646C7.13405 21.9821 7.14945 21.9997 7.16611 22.016C7.17877 22.0289 7.19121 22.0416 7.20436 22.0534C7.22159 22.0692 7.2398 22.0842 7.2585 22.0989C7.27256 22.11 7.28684 22.1211 7.30174 22.1316C7.30702 22.1351 7.31194 22.1398 7.31728 22.1433L17.4705 28.9123C17.6309 29.0192 17.8156 29.0729 18 29.0729C18.1849 29.0729 18.3693 29.0192 18.5297 28.9123L28.6826 22.1433C28.6882 22.1398 28.6932 22.1351 28.6988 22.1316C28.7137 22.1212 28.7276 22.11 28.7417 22.0989C28.7604 22.0842 28.7788 22.0691 28.7961 22.0534C28.8091 22.0416 28.8214 22.0288 28.834 22.016C28.8506 21.9997 28.8664 21.9821 28.8814 21.9646C28.893 21.9512 28.9038 21.9377 28.9144 21.9231C28.9287 21.9044 28.9418 21.8851 28.9546 21.8653C28.9637 21.8507 28.9733 21.836 28.9819 21.8214C28.9935 21.8004 29.004 21.7794 29.0143 21.7578C29.0213 21.7425 29.0292 21.7274 29.0357 21.7117C29.045 21.6882 29.0526 21.6648 29.0602 21.6415C29.0652 21.6263 29.071 21.6111 29.0751 21.5954C29.0822 21.5691 29.0868 21.5422 29.0917 21.5153C29.094 21.5018 29.0973 21.4878 29.0992 21.4744C29.1048 21.4329 29.1078 21.3914 29.1078 21.3493V14.5804ZM27.1987 19.5625V16.3674L24.8105 17.9649L27.1987 19.5625Z" fill="#B2B1CF"/>
</g>
<defs>
<filter id="filter0_ii_84_59" x="-0.964844" y="-1" width="37.9297" height="37.9296" filterUnits="userSpaceOnUse" color-interpolation-filters="sRGB">
<feFlood flood-opacity="0" result="BackgroundImageFix"/>
<feBlend mode="normal" in="SourceGraphic" in2="BackgroundImageFix" result="shape"/>
<feColorMatrix in="SourceAlpha" type="matrix" values="0 0 0 0 0 0 0 0 0 0 0 0 0 0 0 0 0 0 127 0" result="hardAlpha"/>
<feOffset dx="1" dy="1"/>
<feGaussianBlur stdDeviation="1"/>
<feComposite in2="hardAlpha" operator="arithmetic" k2="-1" k3="1"/>
<feColorMatrix type="matrix" values="0 0 0 0 0.196078 0 0 0 0 0.196078 0 0 0 0 0.235294 0 0 0 1 0"/>
<feBlend mode="normal" in2="shape" result="effect1_innerShadow_84_59"/>
<feColorMatrix in="SourceAlpha" type="matrix" values="0 0 0 0 0 0 0 0 0 0 0 0 0 0 0 0 0 0 127 0" result="hardAlpha"/>
<feOffset dx="-1" dy="-1"/>
<feGaussianBlur stdDeviation="1"/>
<feComposite in2="hardAlpha" operator="arithmetic" k2="-1" k3="1"/>
<feColorMatrix type="matrix" values="0 0 0 0 0.972549 0 0 0 0 0.972549 0 0 0 0 1 0 0 0 1 0"/>
<feBlend mode="normal" in2="effect1_innerShadow_84_59" result="effect2_innerShadow_84_59"/>
</filter>
</defs>
</svg>
