<svg width="36" height="36" viewBox="0 0 36 36" fill="none" xmlns="http://www.w3.org/2000/svg">
<g filter="url(#filter0_ii_47_71)">
<path d="M22.507 17.8172C21.9023 17.7117 21.2695 17.7258 20.6508 17.7609C19.2445 17.8383 17.8383 17.9719 16.432 17.8453C15.7641 17.782 15.0891 17.7188 14.4141 17.7328C13.1906 17.7539 12.1641 18.1547 11.5594 19.3219C11.257 19.8984 11.1867 20.5172 11.2078 21.157C11.257 22.957 12.0375 23.9836 13.7531 24.4969C15.1312 24.9047 16.5445 24.9609 17.9648 24.9328C18.4922 24.9328 19.0195 24.9609 19.5469 24.9258C20.6367 24.8625 21.7055 24.7008 22.7391 24.3211C23.8078 23.9273 24.4476 23.175 24.6797 22.0852C24.7711 21.6633 24.8133 21.2203 24.8062 20.7914C24.7922 19.3359 23.8078 18.0352 22.507 17.8172ZM15.5883 22.5773C15.1312 23.0766 14.4703 23.0836 13.9992 22.5984C13.6547 22.2469 13.4578 21.7055 13.4578 21.0305C13.4719 20.5734 13.6055 20.0742 13.9992 19.6734C14.4703 19.1883 15.1312 19.1953 15.5883 19.6875C16.2773 20.4328 16.2773 21.832 15.5883 22.5773ZM21.9797 22.6125C21.5508 23.0555 20.932 23.0695 20.475 22.6617C19.6875 21.9445 19.6875 20.3484 20.475 19.6242C20.925 19.2094 21.5437 19.2234 21.9797 19.6664C22.3805 20.0742 22.5141 20.5875 22.5351 21.1359C22.5141 21.6914 22.3734 22.1977 21.9797 22.6125Z" fill="#B2B1CF"/>
<path d="M18 0C8.05781 0 0 8.05781 0 18C0 27.9422 8.05781 36 18 36C27.9422 36 36 27.9422 36 18C36 8.05781 27.9422 0 18 0ZM27.225 19.575C27.1266 20.3766 26.9578 21.1992 26.6695 21.9516C25.8258 24.1102 24.1383 25.2984 21.9023 25.657C20.6227 25.8609 19.3078 25.868 17.8875 25.9734C16.6148 25.8609 15.2156 25.8469 13.8586 25.6078C11.2289 25.1438 9.44297 23.3016 8.92266 20.6648C8.65547 19.3219 8.57813 17.9719 8.99297 16.6359C9.21094 15.9469 9.56953 15.3352 10.0336 14.7797C10.0969 14.7094 10.1531 14.6039 10.1461 14.5125C10.0688 13.3031 10.2094 12.1078 10.568 10.9547C10.8633 9.99141 10.6453 10.0477 11.7141 10.3289C13.0008 10.6664 14.1258 11.3625 15.2297 12.0867C15.3563 12.1711 15.5531 12.2063 15.7078 12.1781C17.2687 11.9391 18.8227 11.925 20.3836 12.1992C20.4961 12.2203 20.6438 12.1781 20.7492 12.1148C21.6984 11.4961 22.6758 10.9406 23.7445 10.5539C24.1313 10.4133 24.5391 10.3219 24.9328 10.2023C25.1086 10.1531 25.1859 10.2164 25.2492 10.3852C25.7273 11.7211 25.9242 13.0922 25.8539 14.5055C25.8469 14.5828 25.8891 14.6883 25.9383 14.7516C27.1406 16.1437 27.443 17.8031 27.225 19.575Z" fill="#B2B1CF"/>
</g>
<defs>
<filter id="filter0_ii_47_71" x="-2" y="-2" width="40" height="40" filterUnits="userSpaceOnUse" color-interpolation-filters="sRGB">
<feFlood flood-opacity="0" result="BackgroundImageFix"/>
<feBlend mode="normal" in="SourceGraphic" in2="BackgroundImageFix" result="shape"/>
<feColorMatrix in="SourceAlpha" type="matrix" values="0 0 0 0 0 0 0 0 0 0 0 0 0 0 0 0 0 0 127 0" result="hardAlpha"/>
<feOffset dx="2" dy="2"/>
<feGaussianBlur stdDeviation="2"/>
<feComposite in2="hardAlpha" operator="arithmetic" k2="-1" k3="1"/>
<feColorMatrix type="matrix" values="0 0 0 0 0.882353 0 0 0 0 0.94902 0 0 0 0 0.996078 0 0 0 1 0"/>
<feBlend mode="normal" in2="shape" result="effect1_innerShadow_47_71"/>
<feColorMatrix in="SourceAlpha" type="matrix" values="0 0 0 0 0 0 0 0 0 0 0 0 0 0 0 0 0 0 127 0" result="hardAlpha"/>
<feOffset dx="-2" dy="-2"/>
<feGaussianBlur stdDeviation="2"/>
<feComposite in2="hardAlpha" operator="arithmetic" k2="-1" k3="1"/>
<feColorMatrix type="matrix" values="0 0 0 0 0.196078 0 0 0 0 0.196078 0 0 0 0 0.235294 0 0 0 1 0"/>
<feBlend mode="normal" in2="effect1_innerShadow_47_71" result="effect2_innerShadow_47_71"/>
</filter>
</defs>
</svg>
